<?xml version="1.0" encoding="utf-8"?>
<!-- Generator: Adobe Illustrator 22.0.1, SVG Export Plug-In . SVG Version: 6.00 Build 0)  -->
<svg version="1.1" id="Layer_1" xmlns="http://www.w3.org/2000/svg" xmlns:xlink="http://www.w3.org/1999/xlink" x="0px" y="0px"
	 width="250px" height="250px" viewBox="0 0 250 250" enable-background="new 0 0 250 250" xml:space="preserve">
<g>
	<g>
		<defs>
			<path id="SVGID_1_" d="M39.08,125.36c0,47.07,38.39,85.22,85.75,85.22c47.35,0,85.73-38.16,85.73-85.22
				c0-47.08-38.38-85.22-85.73-85.22C77.47,40.13,39.08,78.28,39.08,125.36"/>
		</defs>
		<clipPath id="SVGID_2_">
			<use xlink:href="#SVGID_1_"  overflow="visible"/>
		</clipPath>
		<path clip-path="url(#SVGID_2_)" fill="#A6A6A3" d="M253.54,160.42H-5.43v-0.58h258.98v0.58H253.54z M253.54,155.2H-5.43v0.58
			h258.98v-0.58H253.54z M253.54,150.57H-5.43v0.58h258.98v-0.58H253.54z M253.54,173.76H-5.43v0.58h258.98v-0.58H253.54z
			 M253.54,169.13H-5.43v0.58h258.98v-0.58H253.54z M253.54,164.48H-5.43v0.58h258.98v-0.58H253.54z M253.54,187.68H-5.43v0.58
			h258.98v-0.58H253.54z M253.54,183.04H-5.43v0.58h258.98v-0.58H253.54z M253.54,178.4H-5.43v0.58h258.98v-0.58H253.54z
			 M253.54,201.6H-5.43v0.58h258.98v-0.58H253.54z M253.54,196.96H-5.43v0.58h258.98v-0.58H253.54z M253.54,192.32H-5.43v0.58
			h258.98v-0.58H253.54z M253.54,215.52H-5.43v0.58h258.98v-0.58H253.54z M253.54,210.88H-5.43v0.58h258.98v-0.58H253.54z
			 M253.54,206.24H-5.43v0.58h258.98v-0.58H253.54z M253.54,90.24H-5.43v0.58h258.98v-0.58H253.54z M253.54,85.61H-5.43v0.58h258.98
			v-0.58H253.54z M253.54,80.97H-5.43v0.58h258.98v-0.58H253.54z M253.54,104.17H-5.43v0.58h258.98v-0.58H253.54z M253.54,99.53
			H-5.43v0.58h258.98v-0.58H253.54z M253.54,94.88H-5.43v0.58h258.98v-0.58H253.54z M253.54,118.08H-5.43v0.58h258.98v-0.58H253.54z
			 M253.54,113.44H-5.43v0.58h258.98v-0.58H253.54z M253.54,108.8H-5.43v0.58h258.98v-0.58H253.54z M253.54,132H-5.43v0.58h258.98
			V132H253.54z M253.54,127.37H-5.43v0.58h258.98v-0.58H253.54z M253.54,122.73H-5.43v0.58h258.98v-0.58H253.54z M253.54,145.93
			H-5.43v0.58h258.98v-0.58H253.54z M253.54,141.28H-5.43v0.58h258.98v-0.58H253.54z M253.54,136.64H-5.43v0.58h258.98v-0.58H253.54
			z M253.54,20.65H-5.43v0.58h258.98v-0.58H253.54z M253.54,16.01H-5.43v0.58h258.98v-0.58H253.54z M253.54,11.38H-5.43v0.58h258.98
			v-0.58H253.54z M253.54,34.57H-5.43v0.58h258.98v-0.58H253.54z M253.54,29.92H-5.43v0.58h258.98v-0.58H253.54z M253.54,25.29
			H-5.43v0.58h258.98v-0.58H253.54z M253.54,48.49H-5.43v0.58h258.98v-0.58H253.54z M253.54,43.85H-5.43v0.58h258.98v-0.58H253.54z
			 M253.54,39.21H-5.43v0.58h258.98v-0.58H253.54z M253.54,62.41H-5.43v0.58h258.98v-0.58H253.54z M253.54,57.77H-5.43v0.58h258.98
			v-0.58H253.54z M253.54,53.13H-5.43v0.58h258.98v-0.58H253.54z M253.54,76.32H-5.43v0.58h258.98v-0.58H253.54z M253.54,71.68
			H-5.43v0.58h258.98v-0.58H253.54z M253.54,67.05H-5.43v0.58h258.98v-0.58H253.54z"/>
	</g>
</g>
<g>
	<g>
		<defs>
			<path id="SVGID_3_" d="M39.08,125.36c0,47.07,38.39,85.22,85.75,85.22c47.35,0,85.73-38.16,85.73-85.22
				c0-47.08-38.38-85.22-85.73-85.22C77.47,40.13,39.08,78.28,39.08,125.36"/>
		</defs>
		<clipPath id="SVGID_4_">
			<use xlink:href="#SVGID_3_"  overflow="visible"/>
		</clipPath>
		<g clip-path="url(#SVGID_4_)">
			<path fill="#FFFFFF" d="M185.06,181.98v-10.73l0.42,0.07l0.02-5.15l1.67,0.38l-1.66-4.46l-0.03-0.8l-0.28-0.06l-11.38-30.44
				l-7.68,25.02v-56.8l2.03-0.83l1.03-6.17l-5.88-10.61l-8.98-1.36c-4.84-2.33-6.09-6.08-6.61-9.93l0.82-0.88v-5.49l-1.57-0.37
				c-2.1-8.43-7.18-13.31-15.42-14.82c0.02-0.11,0.03-0.21,0.04-0.32l0.06-0.63c0-1.09-0.34-2.14-0.96-3.03V42.8l-0.32,0.22
				c-0.14-0.65-0.36-1.33-0.69-1.97c-0.01-2.03-0.05-4.89-0.13-7.69c-0.06-2.89-0.13-5.58-0.21-7.3c-0.02-0.68-0.06-1.49-0.22-2.25
				l0.02-0.01l-0.57-2.93h-2.85c-0.23,0-0.46,0.01-0.67,0.03l-2.55,0.1l-0.12,2.78c-0.28,1.51-0.33,3.71-0.41,6.84
				c-0.08,3.27-0.14,7.23-0.18,10.42c-0.59,1.14-0.83,2.42-0.91,3.4c-0.68,0.92-1.07,2.02-1.07,3.17c0,0.39,0.04,0.77,0.13,1.13
				c-7.8,1.81-15.34,7.06-16.82,15.7l-1.23,0.46v5.63l0.73,0.63c-1.01,5.08-3.04,8.13-4.81,9.38L80.8,86.91l2.26,5.48l2.49-1.03
				l0.01,0.02l-2.49,1.03l0.83,2.02l1.09,0.73v66.48l-0.9,0.28L74.91,134l-9.65,31.18v1.63l-1.22,0.39v6.91l1.22,0.57v11.52
				l-6.42,2.04v9.73l6.42,0.68v14.39l2.16-0.35v1.38h115.14v-2.12l2.49-0.03V193.5l5.42-1.29l0.18-9.27L185.06,181.98z"/>
			<polygon fill="#DDB229" points="162.7,95.45 162.7,164.9 157.75,164.07 157.75,88.34 			"/>
			<path d="M99.27,162.14v-40.63c0,0,0.28-7.18,7.82-5.87c5.88,1.03,8.33,5.87,8.33,10.84v33.95h5.63v-34.67
				c0,0,1.17-10.71,13.75-8.97c6.98,0.96,7.18,5.51,7.18,8.09v37.07l5.89,0.76v-38.27c0,0,0.26-11.2,7.55-11.2
				c0-2.57,2.43-7.44-7.71-11.56c-10.72-4.35-25.1-3.82-34.06-3.11c0,0-17.08,3.29-20.42,6.13s-0.32,56.71-0.32,56.71L99.27,162.14z
				"/>
			<path fill="#DDB229" d="M155.38,113.26c-7.29,0-7.55,11.2-7.55,11.2v38.27l-1.73-0.76V124.9
				C146.1,124.9,145.85,111.64,155.38,113.26"/>
			<path fill="#DDB229" d="M133.1,84.63l-26.67,1.43v74.84h3.54v-47.91c0-3.13,0.33-11.58,10-12c9.12-0.4,10.63,6.75,10.63,8.44
				v52.71l7.14-0.85V106.9c0-3.47,4.61-6.52,9.58-4.8c4.54,1.57,6.98,4.97,6.98,10.84v49.78l4.22,1.73v-75.4L133.1,84.63z"/>
			<path d="M106.43,160.9V86.06l-3.33,0.18l-14.68,6.93v71.55l5.83-2v-48.4c0,0,0.06-9.42,6.82-9.88c1.73,0.69,2.03,4.52,2.03,6.68
				v49.78H106.43L106.43,160.9z"/>
			<path fill="#DDB229" d="M102.03,104.44c-5.53,0.73-6.82,7.03-6.82,9.88v48.4l-3.12,2c0,0,0.16-41.78,0-48.36
				C91.87,106.88,96.32,101.69,102.03,104.44"/>
			<path d="M160.13,108.11c-0.44,0.61-0.62,7.03-0.62,9.88v48.4l1.32,2c0,0-0.01-41.78,0-48.35
				C160.85,110.56,160.57,107.5,160.13,108.11"/>
			<path d="M130.6,109.82c0-1.69-1.98-9.53-11.09-9.09c-8.85,0.42-10.41,7.29-10.41,11.82v48.36l-0.46-0.08V109.7
				c0-2.1,0.41-10.11,10.87-10.53c9.86-0.4,11.09,7.47,11.09,9.16V109.82L130.6,109.82z"/>
			<polygon points="146.37,155.77 139.15,135.38 132.56,156.6 132.62,156.58 132.48,156.66 132.48,205.48 146.35,210.28 
				146.35,155.83 146.07,155.7 			"/>
			<polygon points="81.64,165.43 75.01,145.25 68.68,165.7 68.68,209.01 78.02,207.49 78.02,170.72 81.43,166.41 81.43,165.39 			
				"/>
			<polygon fill="#DDB229" points="81.64,165.43 81.64,165.43 81.64,165.42 75.01,145.25 73.49,164.23 73.48,164.23 73.36,207.65 
				78.02,207.49 78.02,170.72 81.63,167.02 81.64,165.43 			"/>
			<polygon points="70.83,170.86 70.83,210.64 179.13,210.64 179.13,166.66 140.93,160.27 98.43,161.84 			"/>
			<path d="M128.23,47.63c0,1.17-1.12,2.12-2.48,2.12s-2.48-0.95-2.48-2.12s1.12-2.12,2.48-2.12S128.23,46.46,128.23,47.63"/>
			<path d="M127.22,45.48c0,2-0.66,3.63-1.47,3.63s-1.47-1.63-1.47-3.63s0.65-3.62,1.47-3.62
				C126.56,41.87,127.22,43.48,127.22,45.48"/>
			<path d="M126.28,44.61c0,5.7-0.23,0.36-0.53,0.36c-0.29,0-0.53,5.35-0.53-0.36c0-5.7,0.23-20.29,0.53-20.29
				C126.05,24.32,126.28,38.91,126.28,44.61"/>
			<path fill="#DDB229" d="M125.82,24.32c-0.05,0,0.03,2.03-0.01,4.78c0.06,4.11-0.03,9.82-0.03,12.77c0,0.17,0.02,0.31,0.04,0.31
				c0.13,0,0.46,0.87,0.46-0.31C126.28,36.93,125.94,24.32,125.82,24.32"/>
			<rect x="124.99" y="49.17" width="1.53" height="2.02"/>
			<path d="M127.69,52.37h-3.88v-2.02c0,0,0.73-0.26,1.94-0.26s1.94,0.26,1.94,0.26S127.69,52.37,127.69,52.37z"/>
			<path d="M125.54,51.48c-8.46,0.17-19.22,5.58-19.22,16.06c0,0,7.02-2.55,9.09-3.43C114.47,54.95,120.23,51.48,125.54,51.48"/>
			<path fill="#DDB229" d="M125.45,51.48c3.56,0,5.74,1.56,5.74,12.04c0,0-12.08,0.58-15.88,0.58
				C114.38,54.95,120.12,51.48,125.45,51.48"/>
			<path fill="#DDB229" d="M125.5,51.48c3.56,0,5.74,1.56,5.74,12.04c0,0,10.32,3.22,12.85,2.71
				C142.28,55.98,136.38,51.48,125.5,51.48"/>
			<path d="M106.35,69.82c-1.23,9.03-5.38,13.66-8.53,14.53c0,0,8.01-1.77,10.3-2.24c7.57-2.49,7.5-15.11,7.01-16
				C114.65,65.22,106.35,69.82,106.35,69.82"/>
			<path fill="#DDB229" d="M131.1,65.35c0,9.48,1.08,12.47,3.66,16.02c0,0-28.92,1.22-26.64,0.74c7.57-2.48,7.5-15.11,7.02-16
				C114.64,65.22,131.1,65.35,131.1,65.35"/>
			<path fill="#DDB229" d="M131.06,65.35c0,9.48,1.08,12.47,3.66,16.02c0,0,20.14,3.77,22.43,3.29
				c-11.67-2.96-12.57-11.07-13.05-16.41C144,67.28,131.06,65.35,131.06,65.35"/>
			<polygon points="85.31,88.9 86.67,92.19 89.27,93.93 104.74,87.62 134.68,86.32 158.43,90.06 162.7,96.72 165.09,95.74 
				165.62,92.63 161.13,84.54 134.72,80.54 104.06,81.88 			"/>
			<polygon points="88.54,100.63 104.68,94.33 134.89,92.99 158.43,96.99 162.7,102.68 162.7,104.54 158.33,98.86 134.68,94.68 
				104.68,95.93 88.54,102.14 			"/>
			<polygon points="67.46,169.7 67.46,171.92 68.68,172.48 69.41,171.3 73.68,169.97 77.66,170.41 93.78,165.7 93.78,163.38 
				77.45,168.18 73.27,167.83 			"/>
			<polygon fill="#DDB229" points="146.37,155.77 139.15,135.38 139.56,153.96 139.54,210.53 146.35,210.28 146.35,155.77 
				146.33,155.76 			"/>
			<polygon points="181.74,161.82 174.12,141.43 167.86,161.82 167.95,161.79 167.95,165.13 171.68,165.38 171.68,208.06 
				181.45,208.53 181.45,161.75 181.45,161.75 			"/>
			<polygon points="107.65,157.52 100.68,136.93 93.5,158.14 93.89,158.01 93.71,158.12 93.71,208.95 103.17,207.65 103.17,162.32 
				107.68,160.03 107.68,157.53 			"/>
			<polygon fill="#DDB229" points="73.6,210.64 73.78,170.94 77.39,171.18 77.39,210.64 			"/>
			<polygon fill="#DDB229" points="107.73,157.56 100.76,136.94 99.56,156.16 99.57,156.16 99.38,210.64 103.17,210.64 
				103.17,162.32 107.68,160.03 107.68,157.55 			"/>
			<polygon fill="#DDB229" points="181.74,161.82 174.12,141.43 174.53,160.16 174.59,160.17 174.6,208.62 181.63,208.53 
				181.63,161.79 			"/>
			<rect x="133.45" y="84.07" width="0.62" height="76.08"/>
			<rect x="158.1" y="87.74" width="0.63" height="76.08"/>
			<polygon points="93.27,161.17 93.27,164.01 99,162.41 103.7,162.85 135.72,161.43 138.57,160.63 146.69,162.02 146.69,158.85 
				138.57,157.17 135.21,158.5 103.17,159.57 99.29,159.03 			"/>
			<polygon fill="#DDB229" points="103.85,162.19 103.88,160.03 98.66,159.38 98.66,161.65 			"/>
			<polygon fill="#DDB229" points="146.88,161.57 146.92,159.4 139.5,157.91 139.5,160.18 			"/>
			<polygon points="146.84,162.94 170.93,166.94 175.01,165.88 182.04,167.21 182.04,164.09 173.98,162.41 170.72,164.18 
				147.04,160.18 			"/>
			<polygon fill="#DDB229" points="182.07,166.72 182.09,164.56 174.84,163.07 174.84,165.32 			"/>
			<polygon fill="#DDB229" points="106.43,93.79 88.42,100.52 88.42,100.77 106.43,94.22 			"/>
			<polygon points="131.24,63.22 114.86,63.81 105.34,67.3 105.34,68.97 106.34,69.82 115.13,66.71 131.09,65.94 144.07,69.02 
				145.13,67.89 145.13,66.47 			"/>
			<path d="M130.71,63.64c0.41,0,0.79-0.12,0.79-0.12c0-10.32-2.23-12.04-5.59-12.04C131.93,51.48,130.3,63.29,130.71,63.64"/>
			<path d="M134.33,81.41l0.76-0.03c-2.58-3.55-3.66-6.55-3.66-16.03c0,0-0.55-0.01-0.82-0.01
				C130.99,68.76,130.17,77.85,134.33,81.41"/>
			<path fill="#DDB229" d="M125.76,45.52c-0.87,0-0.23,0.93,0.18,1.12c0.86,0.4,1.44,1.16,1.44,2.03c0,0.22-0.03,0.43-0.11,0.63
				c0.58-0.38,0.96-0.99,0.96-1.67C128.24,46.46,127.13,45.52,125.76,45.52"/>
			<path fill="#DDB229" d="M125.75,41.86c-0.4,0,0.51,1.89,0.51,3.75c0,1.01,0.95,1.88,0.95-0.13
				C127.22,43.48,126.56,41.86,125.75,41.86"/>
			<polygon fill="#DCDAD3" points="161.13,84.54 134.09,80.5 104.06,81.88 85.58,88.8 104.06,82.41 134.17,81.26 161.43,85.07 			
				"/>
			<polygon fill="#DDB229" points="164.76,93.82 160.97,87.07 134.09,83.06 104.06,84.43 85.58,91.36 104.06,84.97 134.17,83.82 
				160.97,87.57 165.04,94.35 			"/>
			<polygon fill="#DCDAD3" points="106.43,93.87 133.87,92.53 158.73,96.75 162.65,102.32 162.7,102.9 158.73,97.22 133.66,93.03 
				106.43,94.28 			"/>
			<polygon fill="#DCDAD3" points="131.24,63.22 114.86,63.81 105.34,67.3 105.34,67.7 115.13,64.23 131.09,63.61 145.13,66.85 
				145.13,66.47 			"/>
			<polygon points="68.68,195.56 62.26,194.88 62.26,190.73 71.94,187.65 77.69,188.01 86.61,184.81 86.61,183.15 98.86,179.36 
				103.84,180.27 132.46,179.23 136,177.7 151.51,180.3 151.51,181.13 169.47,184.45 171.18,183.09 187.17,185.82 187.1,189.49 
				181.63,190.79 181.63,188.71 171.67,187.08 169.74,188.24 147.15,184.69 150.83,183.86 136.68,181.49 132.6,182.79 
				103.97,184.09 98.72,183.15 87.16,186.58 90.15,187.42 77.85,191.74 72.19,191.44 			"/>
			<polygon fill="#DDB229" points="104.02,183.33 104.05,180.66 99,179.77 99,182.52 			"/>
			<polygon fill="#DCDAD3" points="104.02,181.32 104.05,180.66 99,179.77 99,180.53 			"/>
			<polygon fill="#DDB229" points="151.97,183.48 152.05,180.97 136.51,178.19 136.5,180.78 			"/>
			<polygon fill="#DCDAD3" points="151.97,181.51 152.05,180.97 136.51,178.19 136.5,178.81 			"/>
			<polygon fill="#DDB229" points="186.6,188.87 186.67,186.36 171.13,183.58 171.13,186.18 			"/>
			<polygon fill="#DCDAD3" points="186.6,186.97 186.67,186.36 171.13,183.58 171.13,184.28 			"/>
			<polygon fill="#DCDAD3" points="103.86,159.63 103.91,160.38 135.3,158.61 135.24,157.86 			"/>
			<polygon fill="#DCDAD3" points="147,160.71 170.37,164.58 170.23,163.7 146.96,159.77 			"/>
			<polygon fill="#DCDAD3" points="77.54,167.62 77.47,168.43 93.66,163.57 93.52,162.57 			"/>
			<polygon fill="#DDB229" points="152.54,184.12 148.73,184.7 168.25,187.23 170.57,186.52 170.64,183.81 168.52,184.45 
				152.61,182.21 			"/>
			<polygon fill="#DDB229" points="104.02,183.33 133.13,181.96 136.13,180.78 136.08,178.33 133.07,179.47 104.05,180.66 			"/>
			<polygon fill="#DCDAD3" points="104.02,181.37 133.13,180.01 133.07,179.47 104.05,180.66 			"/>
			<polygon fill="#DDB229" points="86.72,183.65 98.99,179.95 98.96,179.53 86.73,183.26 			"/>
			<polygon fill="#DDB229" points="103.66,195.28 135.65,194.29 135.62,184.56 103.67,185.57 			"/>
			<polygon fill="#DDB229" points="78.01,202.03 92.94,197.48 92.92,189.21 78.02,193.78 			"/>
			<polygon fill="#DDB229" points="146.66,177.3 170.29,180.72 170.27,180.3 146.67,176.91 			"/>
			<polygon fill="#DDB229" points="146.66,195.11 170.29,198.18 170.27,189.51 146.67,186.12 			"/>
			<polygon fill="#DCDAD3" points="168.55,185.07 168.52,184.45 152.62,182.17 152.61,182.78 			"/>
			<polygon fill="#DDB229" points="107.34,162.84 107.34,176.66 107.84,176.66 107.84,162.81 118.67,162.18 118.67,175.94 
				119.17,175.94 119.17,162.16 135.28,161.22 135.26,160.85 104.08,162.64 104.1,163.03 			"/>
			<polygon fill="#DDB229" points="103.68,176.88 103.66,177.27 134.72,175.72 134.68,175.29 			"/>
			<rect x="129.38" y="161.61" fill="#DDB229" width="0.5" height="13.89"/>
			<polygon fill="#DDB229" points="170.51,166.68 146.88,162.76 146.81,163.13 148.8,163.46 148.8,177.36 149.21,177.44 
				149.21,163.52 157.96,164.98 157.96,178.62 158.37,178.7 158.37,165.05 166.63,166.42 166.63,180.03 167.03,180.12 
				167.03,166.49 170.45,167.06 			"/>
			<path fill="#DDB229" d="M92.02,178.55V166.4l1.74-0.51l-0.11-0.37l-15.7,4.57l0.11,0.37l0.8-0.23v12.34l-0.31,0.09l-0.02,0.39
				l13.86-4.2l-0.03-0.42L92.02,178.55z M91.73,178.64l-6.32,1.93v-12.24l6.32-1.84V178.64z M79.15,182.49v-12.33l5.98-1.74v12.25
				l-6.01,1.84L79.15,182.49z"/>
			<polygon fill="#DDB229" points="77.47,170.64 77.47,168.43 77.46,168.44 73.28,168.08 73.28,170.35 			"/>
			<polygon fill="#DDB229" points="86.59,186.78 86.53,185.94 77.48,188.8 77.48,188.79 77.46,188.79 71.83,188.44 71.83,190.7 
				77.48,191 77.48,189.7 			"/>
		</g>
	</g>
</g>
<g>
	<path fill="#DDB229" d="M125,250C56.08,250,0,193.93,0,125S56.08,0,125,0s125,56.08,125,125S193.93,250,125,250 M125,2.9
		C57.67,2.9,2.9,57.67,2.9,125s54.78,122.11,122.11,122.11c67.32,0,122.1-54.78,122.1-122.11C247.1,57.67,192.32,2.9,125,2.9"/>
	<path d="M28.74,166.24l7.37-2.79l-3.23-8.57l-0.43-1.18c0,0-0.01,0-0.01,0.01l-0.03-0.09l-0.2,0.11c-0.28,0.16-0.57,0.31-0.85,0.42
		c-0.27,0.1-0.57,0.15-0.85,0.21l-0.36,0.2c0.87,1.78,1.71,3.57,2.56,5.61c0,0.02,0.01,0.02,0.02,0.04L17,165.95l-0.03,0.18
		l0.11,0.23l0,0l0.07,0.13c0.23,0.48,0.46,0.97,0.64,1.47c0.17,0.48,0.31,0.99,0.44,1.5l0.16,0.58L23.7,168l4.76-1.74L28.74,166.24z
		 M30.24,154.6h0.02c0.07,0.14,0.13,0.28,0.2,0.42C30.39,154.88,30.32,154.74,30.24,154.6 M32.34,153.75l0.01-0.02l0.01,0.02
		C32.35,153.75,32.35,153.75,32.34,153.75 M17.05,166.13L17.05,166.13c0.01,0,0.02,0.01,0.02,0.01L17.05,166.13z M17.18,166.47h0.04
		c0.02,0.06,0.05,0.13,0.08,0.19C17.26,166.58,17.23,166.52,17.18,166.47 M47.12,182.51c-0.17-0.23-0.34-0.48-0.49-0.72
		c-0.14-0.23-0.26-0.48-0.38-0.72l-0.33-0.48c-1.28,0.36-2.54,0.61-3.88,0.88c-0.63,0.13-1.29,0.26-1.88,0.46l-3.31-5.38
		c1.17-1.54,2.44-2.98,3.8-4.51l0.16-0.18l-0.42-0.59c-0.33-0.47-0.66-0.93-0.96-1.42c-0.31-0.51-0.57-1.02-0.83-1.55l-0.3-0.38
		c-0.02-0.03-0.04-0.07-0.06-0.11l-0.02,0.02l-0.06-0.07l-12.4,16.54c0.23,0.28,0.42,0.54,0.6,0.84s0.33,0.59,0.46,0.93l0.02,0.07
		l14.27-2.27l6.17-0.93c-0.01-0.02-0.02-0.02-0.03-0.04l0.11-0.02L47.12,182.51z M38.17,167.85l0.02,0.04l-3.71,4.91L38.17,167.85z
		 M31.44,183.3l1.8-2.3l-1.7,2.28L31.44,183.3z M31.57,183.27l4.07-5.21l1.86,2.91l0.69,1.15l-3.85,0.71L31.57,183.27z M36.46,182.5
		l1.78-0.32l0.02,0.03L36.46,182.5z M47.23,182.84c-0.02-0.03-0.03-0.05-0.05-0.07l0.09,0.06L47.23,182.84z M221.39,176.21
		c-2.33-0.12-4.73-0.26-7.02-0.27l-6.45-3.75l-0.41-0.24c0,0,0,0,0,0.01l-0.08-0.05l-0.26,0.53c-0.21,0.44-0.43,0.89-0.68,1.3
		c-0.28,0.47-0.6,0.9-0.92,1.33l-0.23,0.5l7.26,4.34c1.47,2.27,2.76,4.6,4.12,7.05c0.59,1.07,1.18,2.14,1.8,3.22l0.09,0.17
		l0.07-0.18c0.18-0.4,0.38-0.78,0.6-1.16c0.24-0.4,0.49-0.76,0.76-1.1l-0.07-0.22c-1.37-1.95-3.78-5.42-4.67-7.06
		c-0.07-0.16-0.15-0.31-0.2-0.43c0.53-0.07,1.97,0.06,3.67,0.21l0.67,0.07c1.59,0.16,3.26,0.32,4.82,0.4l0.29-0.57
		c0.27-0.55,0.55-1.09,0.87-1.62c0.32-0.53,0.68-1.04,1.04-1.56l0.18-0.4c0.03-0.04,0.07-0.09,0.09-0.14c-0.01,0-0.02,0-0.03,0
		l0.04-0.09C224.93,176.4,223.15,176.3,221.39,176.21 M205.46,175.53L205.46,175.53l0.54,0.32L205.46,175.53z M207.45,172.05
		l0.01-0.03l0,0C207.46,172.02,207.46,172.03,207.45,172.05 M226.6,176.55c-0.33-0.01-0.65-0.03-0.97-0.04
		c0.33,0,0.67,0.01,1.01-0.01L226.6,176.55z M218.71,141.22L218.71,141.22l-0.09-0.01l-0.06,0.52c-0.05,0.51-0.1,1.02-0.2,1.52
		c-0.1,0.51-0.24,1.01-0.38,1.51l-0.07,0.61l18.51,3.57l0.1,0.02l0.07-0.66c0.05-0.5,0.1-1,0.2-1.49c0.09-0.5,0.23-0.98,0.38-1.48
		l0.07-0.63l-17.19-3.22L218.71,141.22z M218.7,141.31c0,0.01,0,0.03,0,0.03V141.31L218.7,141.31z M218.03,145.28L218.03,145.28
		l1.32,0.25L218.03,145.28z M237.13,144.77L237.13,144.77l-1.32-0.25L237.13,144.77z M234.25,156.79c-0.27-0.05-0.55-0.11-0.81-0.2
		c-0.28-0.11-0.54-0.24-0.79-0.38l-0.4-0.08c-0.27,1.27-0.68,2.94-1.21,4.71c-0.02,0.06-0.02,0.1-0.05,0.16l-14.84-5.28l-1.08-0.39
		c0,0,0,0,0,0.01l-0.09-0.03l-0.13,0.47c-0.13,0.51-0.27,1.02-0.44,1.51c-0.17,0.48-0.38,0.93-0.61,1.4l-0.17,0.62l9.22,3.34
		l0.02,0.01l0,0l6.58,2.28h0.02c-0.5,1.39-1.14,2.72-1.75,4.12c-0.07,0.13-0.13,0.27-0.2,0.41c0.01,0,0.02,0,0.02,0
		c-0.01,0.03-0.03,0.06-0.04,0.09l0.3,0.06c0.28,0.06,0.57,0.11,0.85,0.21c0.27,0.1,0.52,0.24,0.77,0.38l0.35,0.19l2.07-5.98
		l0.72-2.01h0.1l1.68-4.9l0.2-0.55h-0.01l0.03-0.09L234.25,156.79z M213.75,159.24L213.75,159.24l0.63,0.22L213.75,159.24z
		 M215.03,155.44v-0.02h0.01C215.04,155.42,215.03,155.43,215.03,155.44 M222.88,162.64l0.24-0.01l2.99,1.08L222.88,162.64z
		 M229.53,165.02c0.01-0.02,0.02-0.03,0.02-0.06l0,0C229.54,164.98,229.54,165,229.53,165.02 M232.25,156.52
		c0.02-0.09,0.03-0.2,0.05-0.28l0.03,0.01C232.3,156.33,232.27,156.43,232.25,156.52 M234.44,156.93c-0.01,0-0.02,0-0.02,0H234.44
		L234.44,156.93z M30.9,149.69c-0.07-0.27-0.13-0.55-0.18-0.82c-0.04-0.28-0.07-0.54-0.08-0.81l-0.13-0.56
		c-1.32-0.15-2.58-0.38-3.92-0.64c-0.63-0.12-1.29-0.24-1.91-0.28l-1.05-6.22c0.63-0.38,1.26-0.75,1.89-1.15
		c0.24-0.13,0.48-0.27,0.72-0.4l0.23-0.01c0.71-0.38,1.44-0.74,2.2-1.11l0.38-0.28l-0.13-0.52c-0.14-0.59-0.29-1.17-0.38-1.78
		c-0.09-0.57-0.14-1.15-0.18-1.72l-0.13-0.49c0-0.04-0.01-0.09-0.01-0.13l-0.02,0.01l-0.02-0.09l-10.17,6.1l-7.52,4.59
		c0.11,0.34,0.18,0.66,0.24,1.01c0.06,0.35,0.08,0.67,0.15,1.13l20.2,4.8L30.9,149.69z M28.09,132.77v0.05l-3.05,1.83L28.09,132.77z
		 M22.02,141.15l0.2,1.27l-0.23-1.26L22.02,141.15z M16.08,144.58l2.47-1.43l-2.38,1.45L16.08,144.58z M18.96,145.24l-2.75-0.63
		l4.18-2.53l1.52-0.88l0.77,4.8L18.96,145.24z M234.05,125.08c-3.72-0.3-5.1,2.15-6.32,4.29c-1,1.77-1.84,3.28-3.78,3.13
		c-0.75-0.07-1.38-0.38-1.82-0.88c-0.52-0.62-0.76-1.48-0.68-2.46c0.15-1.89,1.39-3.21,3.32-3.55l-0.03-0.63
		c-1.18-0.27-2.34-0.67-3.53-1.04c-0.87,1.15-1.42,2.7-1.56,4.38c-0.23,2.89,0.75,5.43,2.63,6.81h0.01h-0.01
		c0.01,0.01,0.02,0.01,0.02,0.02c0.83,0.6,1.83,0.97,2.88,1.04c0.19,0.02,0.38,0.02,0.55,0.02c1.05,0,1.97-0.28,2.78-0.9
		c0.15-0.1,0.3-0.2,0.44-0.31h0.17c1.09-0.91,1.88-2.21,2.57-3.36c0.98-1.63,1.83-3.04,3.45-3.04h0.01c0.79,0.06,1.4,0.33,1.8,0.81
		c0.45,0.53,0.63,1.32,0.56,2.32c-0.14,1.81-1.48,2.57-2.65,2.97l-0.02,0.22h0.02l0.02,0.29c0.91,0.35,1.79,0.7,2.64,1.1l0.06,0.02
		l0.05-0.04c0.27-0.23,0.53-0.69,0.75-1.27c0.04-0.08,0.08-0.14,0.12-0.23h0.12c0.27-0.61,0.62-1.59,0.72-2.8
		C239.71,128.09,237.62,125.38,234.05,125.08 M222.37,135.16l0.17-0.01c0.17,0.12,0.38,0.2,0.56,0.3
		C222.84,135.35,222.6,135.27,222.37,135.16 M28.08,121.6c0.28-3.37-1.15-6.89-4.94-7.2c-3.64-0.31-4.73,2.83-4.94,4.58l-0.16,0.07
		c-0.13-2.15-1.28-4.73-4.12-4.97c-2.77-0.22-4.42,1.65-4.7,5.23l-0.49,7.21l18.84,1.53L28.08,121.6z M10.75,122.43
		c-0.03-0.55-0.02-0.97,0.01-1.4c0.13-1.67,1.16-2.62,2.81-2.62c0.13,0,0.25,0.01,0.38,0.02c0.83,0.07,1.97,0.36,2.69,1.37
		c0.63,0.86,0.54,1.74,0.45,2.77l0.07,0.3L10.75,122.43z M26.22,123.6l-7.38-0.51c0.02-2.89,1.14-4.24,3.54-4.24
		c0.19,0,0.38,0.01,0.58,0.03c1.3,0.11,2.08,0.73,2.51,1.23c0.53,0.64,0.81,1.43,0.75,2.2L26.22,123.6z M218.47,105.88
		C218.47,105.89,218.47,105.89,218.47,105.88l-0.09,0.03l0.11,0.47c0.1,0.42,0.2,0.85,0.27,1.28l0.02,0.08h0.03l-0.02,0.07
		l0.02,0.11c0.07,0.5,0.1,1.01,0.12,1.52l0.14,0.63l8.63-1.32l0.07,0.1l-1.27,1.01c-0.57,0.46-1.12,0.89-1.5,1.19l-5.29,4.14
		l0.13,0.61c0.13,0.6,0.27,1.21,0.35,1.82c0.09,0.63,0.12,1.23,0.17,1.84l0.06,0.83l3.22-2.75c1.46-1.27,2.94-2.57,4.4-3.83
		c0.3-0.25,0.6-0.51,0.9-0.75c0.98,2.6,3.01,3.95,5.59,3.58c1.82-0.26,3.01-1.23,3.63-2.98c0.42-1.15,0.16-2.92-0.02-4.21
		l-0.38-2.07h0.08l-0.68-4.13l-17.28,2.55L218.47,105.88z M218.48,105.98L218.48,105.98c0.01,0.01,0.01,0.02,0.02,0.02
		L218.48,105.98z M218.86,107.73L218.86,107.73c0.01,0.01,0.01,0.01,0.01,0.02L218.86,107.73z M219.14,109.96L219.14,109.96
		l0.66-0.1L219.14,109.96z M237.71,107.19L237.71,107.19l-0.07-0.42L237.71,107.19z M237.04,103.25L237.04,103.25l-0.08,0.01
		L237.04,103.25z M228.97,112.9c0.01,0,0.01-0.01,0.02-0.01c0.05,0.13,0.11,0.25,0.17,0.37
		C229.09,113.14,229.02,113.03,228.97,112.9 M236.17,107.64l0.04,0.31c0.24,1.6,0.5,3.25-1.45,3.92c-0.55,0.18-0.95,0.28-1.32,0.32
		c-2.77,0.39-4.25-0.84-4.48-3.53L236.17,107.64z M217.17,100.69l0.33-0.15c0.28-0.13,0.57-0.27,0.86-0.35
		c0.28-0.08,0.59-0.12,0.88-0.16l0.35-0.17c-0.75-1.7-1.38-3.47-2.17-5.8c0-0.03-0.01-0.04-0.02-0.07l6.58-1.99H224l0.79,2.74
		c0.27,0.92,0.48,1.88,0.73,2.99c0.02,0.1,0.04,0.21,0.06,0.31c0.01,0,0.01-0.01,0.02-0.01c0.01,0.03,0.02,0.06,0.02,0.09l0.27-0.13
		c0.27-0.13,0.54-0.25,0.82-0.33c0.28-0.08,0.59-0.12,0.89-0.16l0.35-0.17c-0.5-1.13-0.87-2.13-1.18-3.17l-0.86-2.63l0,0l5.57-1.7
		c0.73,2.37,1.06,4.08,1.42,5.78c0.02,0.13,0.04,0.28,0.07,0.4c0.01,0,0.01,0,0.02-0.01c0.01,0.03,0.01,0.07,0.02,0.09l0.26-0.12
		c0.27-0.13,0.55-0.26,0.83-0.33c0.29-0.08,0.62-0.13,0.92-0.16l0.32-0.15l-3.02-10.13l-18.06,5.29L217.17,100.69z M219.49,99.81
		h-0.03c-0.07-0.14-0.12-0.3-0.19-0.45C219.35,99.51,219.42,99.67,219.49,99.81 M227.83,97.29h-0.02c-0.05-0.12-0.1-0.24-0.15-0.36
		C227.72,97.06,227.77,97.18,227.83,97.29 M235.21,95.28L235.21,95.28l-0.38-1.26L235.21,95.28z M233.07,95.97l-0.03,0.04
		c0-0.01,0-0.02,0-0.03C233.05,95.98,233.06,95.97,233.07,95.97 M225.7,97.98l-0.02,0.04c0-0.01,0-0.02-0.01-0.02
		C225.68,97.99,225.69,97.98,225.7,97.98 M28.74,110.18c0.04-0.27,0.08-0.54,0.15-0.81s0.15-0.52,0.24-0.77l0.11-0.57
		c-1.17-0.66-2.23-1.38-3.37-2.13c-0.54-0.36-1.09-0.72-1.64-1.01l1.46-6.15c1.92-0.28,3.88-0.38,5.93-0.5l0.18-0.01l0.12-0.7
		c0.09-0.57,0.18-1.13,0.32-1.7c0.14-0.58,0.33-1.14,0.53-1.71l0.05-0.45c0.02-0.04,0.03-0.08,0.03-0.12h-0.03l0.01-0.1L12.37,96.4
		c-0.03,0.35-0.08,0.67-0.17,1.02c-0.08,0.34-0.19,0.65-0.3,1.09l16.72,12.31L28.74,110.18z M32.77,93.54l-0.02,0.04l-6.21,0.87
		L32.77,93.54z M17.09,99.71l2.89-0.35l-2.82,0.41L17.09,99.71z M22.68,103.76l-1.46-1.06l1.47,1.02L22.68,103.76z M23.03,102.37
		l-0.32,1.29l-3.21-2.21l-2.29-1.66l6.57-0.8L23.03,102.37z M83.82,19.56c1.37-0.58,2.78-1.02,4.18-1.52
		c0.16-0.04,0.31-0.09,0.47-0.14c0-0.01-0.01-0.01-0.01-0.02c0.03-0.01,0.06-0.02,0.09-0.03l-0.14-0.23
		c-0.16-0.25-0.32-0.51-0.44-0.79c-0.12-0.26-0.18-0.54-0.25-0.82l-0.21-0.34l-11.43,4.97l-1.56,0.66l0.01,0.01l-0.09,0.03
		l0.14,0.23c0.16,0.25,0.32,0.5,0.43,0.77c0.12,0.27,0.19,0.56,0.26,0.84l0.22,0.34c1.11-0.66,2.6-1.51,4.23-2.31
		c0.07-0.03,0.12-0.06,0.18-0.09l6.67,15.64l0.54-0.29c0.46-0.24,0.91-0.49,1.38-0.69c0.46-0.19,0.94-0.35,1.43-0.51l0.57-0.3
		L83.82,19.56L83.82,19.56z M88.43,17.81c-0.01,0-0.02,0-0.03,0.01c0-0.01-0.01-0.02-0.01-0.02L88.43,17.81z M87.44,15.78
		L87.44,15.78l-1.55,0.67L87.44,15.78z M74.55,21.38L74.55,21.38c0.01,0,0.02,0,0.02,0.01L74.55,21.38z M75.52,23.42l-0.01-0.03
		c0.07-0.04,0.18-0.09,0.25-0.14C75.68,23.31,75.59,23.37,75.52,23.42 M90.37,34.93L90.37,34.93l-0.47-1.08L90.37,34.93z
		 M215.22,54.78L215.22,54.78l0.07-0.07l-0.35-0.36c-0.36-0.37-0.73-0.75-1.05-1.15c-0.33-0.4-0.62-0.83-0.9-1.26l-0.43-0.43
		L199.04,62.6L198,63.47c0,0,0,0,0.01,0.01l-0.07,0.06l0.37,0.39c0.35,0.37,0.71,0.73,1.03,1.12c0.32,0.4,0.61,0.82,0.9,1.25
		l0.35,0.52l13.58-11.16L215.22,54.78z M215.17,54.72L215.17,54.72c-0.01,0-0.02-0.01-0.02-0.02L215.17,54.72z M198.05,63.54
		L198.05,63.54c0.01,0,0.02,0.01,0.02,0.02L198.05,63.54z M211.5,52.5l1.05-0.86v0.01L211.5,52.5z M191.18,42.59
		c0.22,3.48,0.32,6.93,0.45,10.58l0.14,3.24l1.85,1.58l10.44-12.63l1.65-1.97l-0.01-0.01l0.06-0.08c-0.31-0.18-0.62-0.41-0.88-0.63
		c-0.27-0.23-0.54-0.49-0.92-0.76l-4.62,5.66l-3.48,4.16c-0.08-3.65-0.29-7.33-0.5-10.87c-0.13-2.18-0.25-4.34-0.38-6.58l-2.22-1.73
		l-11.25,13.59l-0.74,0.89l0,0l-0.06,0.08l0.29,0.2c0.21,0.14,0.42,0.28,0.6,0.43c0.18,0.15,0.36,0.33,0.53,0.51l0.39,0.25
		l4.87-5.96l3.52-4.2L191.18,42.59z M205.63,43.34L205.63,43.34c-0.02,0-0.02-0.01-0.03-0.01
		C205.62,43.33,205.63,43.34,205.63,43.34 M203.95,42.06C203.95,42.06,203.95,42.07,203.95,42.06l-1.02,1.23L203.95,42.06z
		 M195.83,51.78l-0.07,0.08c-0.02-0.81-0.06-1.61-0.08-2.41C195.73,50.23,195.77,51,195.83,51.78 M190.98,38.26l0.12,1.77l-0.18-1.7
		L190.98,38.26z M180.83,47.11L180.83,47.11c0.01,0,0.02,0,0.02,0.01L180.83,47.11z M182.52,48.38L182.52,48.38l0.63-0.77
		L182.52,48.38z M183.48,26.26c0,0-0.01,0-0.02,0l0.04-0.08c-0.34-0.11-0.69-0.26-1.01-0.42c-0.32-0.16-0.64-0.36-1.07-0.53
		l-3.78,7.44c-0.6,1.18-2.02,3.97-2.98,4.81c-1.94,1.69-3.48,1.89-5.77,0.74c-1.1-0.56-1.82-1.35-2.21-2.42
		c-0.45-1.31-0.24-2.15,0.13-3.42c0.36-1.18,1.19-2.79,1.86-4.08l3.54-7.18l0.23-0.44c0,0,0,0-0.01,0l0.04-0.08l-0.5-0.2
		c-0.48-0.19-0.94-0.38-1.39-0.61s-0.88-0.5-1.32-0.77l-0.59-0.24l-5.07,10c-0.53,1.05-0.94,2.2-1.15,3.23
		c-0.82,4.17,2.81,6.69,5.04,7.82c1.49,0.76,2.94,1.14,4.31,1.14c0.35,0,0.7-0.02,1.04-0.08c3.38-0.46,4.71-2.93,6.13-5.55
		l3.88-7.84L183.48,26.26z M183.38,26.22L183.38,26.22c-0.01,0-0.02,0-0.02,0C183.37,26.21,183.38,26.22,183.38,26.22 M172.36,20.62
		L172.36,20.62c-0.01,0-0.02,0-0.03,0H172.36z M168.72,18.87L168.72,18.87l-0.38,0.78L168.72,18.87z M180.98,26.33l0.48-0.99
		c0.01,0,0.01,0,0.02,0.01L180.98,26.33z M55.14,57.74l0.24,0.12l0.46-0.59c0.34-0.45,0.68-0.89,1.07-1.32
		c0.4-0.44,0.82-0.84,1.24-1.24l0.28-0.4c0.03-0.03,0.06-0.06,0.09-0.08l-0.02-0.01l0.06-0.08L39.1,47.11
		c-0.2,0.29-0.39,0.56-0.63,0.82S38,48.41,37.7,48.75l8.98,18.72l0.35-0.46c0.17-0.23,0.36-0.47,0.56-0.7
		c0.18-0.21,0.38-0.39,0.58-0.58l0.35-0.44c-0.72-1.13-1.33-2.25-1.97-3.45c-0.31-0.57-0.63-1.16-0.97-1.67l4.17-4.74
		C51.55,56.1,53.3,56.9,55.14,57.74 M58.45,54.15l-0.03,0.03l-5.8-2.12L58.45,54.15z M44.75,58.44l-0.83-1.69l0.85,1.67L44.75,58.44
		z M44.82,58.37l-2.91-5.95l4.48,1.62l1.63,0.63l-2.31,2.71L44.82,58.37z M47.27,55.64l0.81-0.95l0.03,0.01L47.27,55.64z
		 M109.2,30.23l0.67-0.18c0.56-0.15,1.11-0.31,1.68-0.42c0.58-0.12,1.15-0.17,1.73-0.24l0.48-0.15c0.04-0.01,0.08-0.01,0.13-0.02
		l-0.02-0.02l0.09-0.03l-11.3-17.32c-0.33,0.12-0.65,0.21-1,0.27c-0.34,0.07-0.67,0.1-1.12,0.19l-4.09,20.36L97,32.52
		c0.29-0.08,0.58-0.17,0.87-0.22c0.28-0.06,0.56-0.08,0.83-0.12l0.52-0.13c0.1-1.35,0.3-2.63,0.51-3.99
		c0.09-0.63,0.19-1.27,0.22-1.88l6.18-1.27c1.06,1.63,1.98,3.32,2.95,5.13L109.2,30.23z M113.87,29.12l-0.05,0.01l-3.36-5.19
		L113.87,29.12z M100.35,24.3l0.36-1.86l-0.32,1.85L100.35,24.3z M100.45,24.28l1.26-6.51l2.59,3.99l0.93,1.49l-3.47,0.77
		L100.45,24.28z M104.05,23.58l1.21-0.27l0.02,0.03L104.05,23.58z M70.34,32.63c-0.71,0-1.42,0.06-2.09,0.12
		c-0.63,0.05-1.22,0.1-1.78,0.1c-1.42,0-2.22-0.34-2.7-1.12c-0.88-1.46-0.47-2.75,1.18-3.73c1.22-0.74,2.48-0.6,3.94,0.42l0.39-0.32
		c-0.25-0.94-0.48-1.86-0.72-2.86c-0.8-0.17-2.66,0.03-4.48,1.12c-1.71,1.03-2.82,2.4-3.23,3.97c-0.37,1.43-0.11,2.99,0.73,4.39
		c1.47,2.46,3.45,2.77,5,2.77c0.72,0,1.45-0.08,2.15-0.15c0.65-0.07,1.28-0.14,1.88-0.14c1.42,0,2.28,0.41,2.85,1.38
		c0.44,0.73,0.54,1.51,0.27,2.25c-0.24,0.68-0.78,1.29-1.51,1.72c-1.58,0.96-3.35,0.73-4.81-0.63l-0.49,0.39
		c0.49,1.14,0.83,2.35,1.21,3.46h0.17c1.38,0,2.91-0.46,4.28-1.29c1.78-1.08,3.08-2.57,3.65-4.21c0.58-1.65,0.4-3.38-0.5-4.86
		C74.26,32.94,72.07,32.63,70.34,32.63 M207.72,77.51c0.17,0.22,0.34,0.45,0.48,0.71c0.13,0.24,0.23,0.51,0.32,0.78l0.13,0.36
		l0.07-0.01c6.04-0.89,12.14-1.41,18.03-1.92l1.5-0.22c0.23-0.02,0.46-0.03,0.69-0.06c-0.01-0.02-0.02-0.03-0.02-0.04l0.11-0.02
		c-0.24-0.33-0.47-0.71-0.66-1.07c-0.2-0.36-0.38-0.76-0.63-1.21c-3.85,0.68-7.77,1.17-11.15,1.61c-1.04,0.12-2.07,0.24-3.12,0.34
		c0.99-1.1,1.96-2.21,2.93-3.32c2.15-2.46,4.38-5,6.73-7.41l-0.32-0.51c-0.33-0.52-0.66-1.03-0.93-1.56
		c-0.28-0.53-0.52-1.09-0.77-1.65l-0.27-0.38c-0.02-0.04-0.04-0.08-0.06-0.13c-0.01,0.01-0.01,0.02-0.02,0.03l-0.06-0.08
		c-4.98,6.06-9.17,10.94-13.18,15.49L207.72,77.51z M228.93,77.05h-0.05c-0.02-0.04-0.05-0.08-0.08-0.13
		C228.85,76.97,228.88,77.03,228.93,77.05 M220.68,61.86l0.02,0.04c-0.4,0.48-0.81,0.95-1.2,1.43
		C219.89,62.85,220.28,62.36,220.68,61.86 M214.07,75.96c-0.22,0.27-0.43,0.53-0.64,0.82c-0.03,0-0.06,0.01-0.09,0.01
		C213.58,76.51,213.82,76.22,214.07,75.96 M130.01,12.64c0-0.01,0-0.02,0-0.02c0.03,0,0.07,0.01,0.1,0.01l-0.04-0.27
		c-0.04-0.29-0.08-0.58-0.07-0.9c0.01-0.29,0.06-0.59,0.12-0.88l-0.05-0.37L117.6,10.1l-1.69-0.02c0,0,0,0.01,0,0.02h-0.1l0.04,0.29
		c0.04,0.28,0.08,0.57,0.08,0.85c-0.01,0.31-0.06,0.59-0.11,0.88l0.06,0.4c1.19-0.14,2.8-0.31,4.63-0.31l0.37-0.09h0.01l-0.17,15.81
		l-0.02,1.09h0.01v0.09l0.51-0.03c0.48-0.03,0.93-0.08,1.55-0.07c0.52,0.01,1.03,0.07,1.55,0.12l0.61,0.07l0.18-16.85v-0.06
		c1.47,0.02,2.92,0.19,4.44,0.31C129.69,12.61,129.85,12.63,130.01,12.64 M115.89,10.18h0.02c0,0.01,0,0.02,0,0.02L115.89,10.18z
		 M115.95,12.43V12.4c0.1-0.01,0.22-0.02,0.32-0.03C116.17,12.39,116.04,12.41,115.95,12.43 M120.79,29.02L120.79,29.02
		c0.01-0.01,0.03-0.01,0.03-0.01L120.79,29.02z M125.09,12.18L125.09,12.18c0.01,0,0.02,0,0.03,0
		C125.12,12.18,125.11,12.18,125.09,12.18 M129.96,10.29v0.02l-1.83-0.03L129.96,10.29z M145.19,30.71c0-0.29,0-0.6,0.05-0.88
		c0.03-0.27,0.12-0.55,0.21-0.82l0.01-0.43c-1.84-0.05-3.78-0.23-6.18-0.49c-0.03,0-0.04-0.01-0.07-0.01l0.98-6.81v-0.01l2.82,0.44
		c0.93,0.14,1.89,0.36,3.03,0.59c0.09,0.03,0.2,0.05,0.29,0.08v-0.02c0.03,0.01,0.06,0.02,0.09,0.02v-0.3c0-0.29,0-0.6,0.05-0.88
		c0.04-0.28,0.13-0.58,0.23-0.85v-0.4c-1.25-0.02-2.32-0.12-3.37-0.28l-2.74-0.33l0.81-5.76c2.48,0.34,4.17,0.77,5.83,1.16
		c0.13,0.04,0.27,0.08,0.4,0.12v-0.03c0.03,0.01,0.07,0.02,0.09,0.03v-0.28c0-0.3,0-0.61,0.05-0.9c0.04-0.29,0.14-0.59,0.23-0.88
		v-0.37l-10.46-1.55l-2.82,18.6l10.46,1.64L145.19,30.71z M146.33,22.28c0-0.01,0-0.02,0-0.04l0.02,0.05
		C146.35,22.28,146.35,22.28,146.33,22.28 M146.61,20.02l-0.01,0.03c-0.13,0-0.27-0.02-0.39-0.02
		C146.34,20.02,146.47,20.03,146.61,20.02 M147.63,14.75v-0.03l0.03,0.04C147.65,14.76,147.64,14.76,147.63,14.75 M147.9,12.49
		L147.9,12.49l-1.27-0.19L147.9,12.49z M145.36,28.64l-0.01,0.02c-0.15,0-0.32-0.02-0.48-0.02
		C145.04,28.64,145.21,28.65,145.36,28.64 M25.65,83.84L25.65,83.84c3.25,2.46,5.77,4.42,7.93,6.18l0.1,0.08l0.17-0.46
		c0.11-0.28,0.21-0.54,0.36-0.82c0.16-0.29,0.36-0.55,0.56-0.82l0.15-0.38c-1.9-1.1-3.81-2.34-6.23-4.03h0.03
		c-0.97-0.68-2.01-1.4-3.09-2.11c-0.33-0.25-0.66-0.48-1.01-0.74c1.75,0.09,3.5,0.17,5.22,0.26c2.93,0.13,5.77,0.27,8.47,0.38
		c0.1-0.36,0.29-0.63,0.49-1c-2.22-2.99-4.38-6.05-6.49-8.94c-0.54-0.78-1.08-1.54-1.62-2.33c1.06,0.46,2.12,0.9,3.18,1.35
		c2.78,1.17,5.64,2.38,8.58,3.71l0.27-0.58c0.22-0.48,0.42-0.94,0.69-1.43c0.28-0.49,0.57-0.95,0.88-1.42l0.23-0.52
		c0.01-0.02,0.02-0.02,0.02-0.04h-0.01l0.04-0.08c-4.51-1.57-9.32-3.56-14.89-5.86l-2.81-1.05l0,0l-0.09-0.03l-0.1,0.28
		c-0.1,0.28-0.2,0.56-0.34,0.81s-0.32,0.48-0.49,0.7l-0.18,0.35c2.35,3.1,4.4,6.17,6.38,9.13c0.49,0.74,0.99,1.43,1.51,2.07
		c0.11,0.16,0.22,0.34,0.33,0.5l-0.75,0c-4.46-0.17-9.07-0.35-13.63-0.63l-0.11,0.28c-0.1,0.27-0.19,0.54-0.32,0.78
		c-0.14,0.25-0.31,0.46-0.48,0.68l-0.16,0.37c2.49,1.85,4.9,3.64,7.18,5.37L25.65,83.84z M34.81,87.66L34.81,87.66
		c-0.05-0.02-0.09-0.05-0.14-0.07C34.72,87.61,34.77,87.63,34.81,87.66 M28.68,83.59h-0.13c-0.3-0.21-0.62-0.44-0.93-0.66
		C27.98,83.15,28.34,83.4,28.68,83.59 M25.77,83.83h0.03c0.52,0.39,1.01,0.78,1.52,1.17c-0.53-0.38-1.06-0.76-1.63-1.16L25.77,83.83
		z M44.48,70.15l-0.01,0.02c-0.52-0.18-1.04-0.37-1.57-0.56C43.42,69.79,43.97,69.98,44.48,70.15 M42.43,74.05v0.02l0,0
		C42.42,74.06,42.42,74.06,42.43,74.05 M30.6,68.99c0.28,0.13,0.57,0.24,0.86,0.37c-0.26-0.09-0.52-0.18-0.79-0.26
		C30.65,69.06,30.63,69.03,30.6,68.99 M33.94,77.06c0.01,0.02,0.02,0.03,0.03,0.04c-0.08,0-0.18-0.01-0.26-0.01L33.94,77.06z
		 M18.58,78.43L18.58,78.43c0.02,0.01,0.03,0.03,0.06,0.04C18.62,78.47,18.6,78.45,18.58,78.43 M24.5,80.66
		c0.46,0.03,0.92,0.05,1.38,0.07c-0.43,0-0.85-0.01-1.28,0.01C24.57,80.71,24.53,80.68,24.5,80.66"/>
	<path d="M56.2,204.52c-2.07,0-3.72,1.67-3.78,3.73c0.07,2.07,1.72,3.74,3.78,3.74c2.08,0,3.76-1.68,3.76-3.74
		C59.96,206.19,58.27,204.52,56.2,204.52"/>
	<path d="M191.44,204.1c-2.07,0-3.72,1.67-3.78,3.73c0.07,2.07,1.72,3.74,3.78,3.74s3.76-1.67,3.76-3.74
		C195.2,205.77,193.51,204.1,191.44,204.1"/>
	<path d="M90.75,219.38l-0.06,0.22c0.32,0.52,0.58,1.03,0.73,1.62c1.12-0.18,2.21-0.4,3.53-0.76l-2.82,10.53l-1.19,4.47
		c0.63,0.11,1.26,0.19,1.87,0.35c0.61,0.17,1.2,0.41,1.79,0.63l1.47-5.45l3.38-12.63l-0.18-0.19
		C96.47,218.72,93.63,219.24,90.75,219.38 M120.19,225.82c0.13-1.48-0.42-2.44-1.52-3.37c-1.21-0.98-2.46-1.23-3.99-1.37
		c-2.79-0.24-5.93,0.72-6.22,3.96c-0.17,1.83,1.1,3.55,2.84,4.06l-0.02,0.19c-1.27,0.09-2.34,0.75-3.1,1.69
		c-0.66,0.82-1.07,1.85-1.17,2.9c-0.13,1.56,0.38,3.21,1.56,4.25c1.23,1.08,2.9,1.55,4.48,1.69c3.64,0.32,6.68-1.62,6.99-5.15
		c0.13-1.42-0.33-2.74-1.24-3.68c-0.56-0.57-1.28-1.01-2.13-1.22l0.02-0.19C118.68,229.23,120.01,227.85,120.19,225.82z
		 M112.17,225.64c0.12-1.37,0.58-3.48,2.39-3.32c1.8,0.17,1.98,1.94,1.85,3.39c-0.12,1.34-0.69,3.5-2.44,3.34
		c-0.72-0.06-1.24-0.6-1.53-1.21C112.12,227.18,112.11,226.35,112.17,225.64z M115.58,231.32c0.43,0.81,0.48,2.42,0.4,3.32
		c-0.12,1.45-0.92,4.14-2.81,3.97c-2.02-0.17-2.22-2.96-2.09-4.46c0.08-0.88,0.34-2.24,0.96-3.14c0.26-0.38,0.59-0.68,0.99-0.82
		c0.93-0.36,1.83,0.06,2.36,0.81C115.45,231.1,115.52,231.2,115.58,231.32z M156.72,216.81c-1.29,4.66-2.47,9.37-3.38,14.17
		c-0.34,1.81-0.65,3.63-0.91,5.48c-0.6,0.1-1.18,0.17-1.77,0.33c-0.58,0.16-1.12,0.39-1.69,0.59c0.68-2.02,1.4-4.23,2.08-6.4
		c1.2-3.82,2.3-7.59,2.99-10.35l-8.77,2.62c-0.11-0.63-0.19-1.26-0.36-1.87c-0.16-0.58-0.4-1.17-0.62-1.77l12.1-3.25L156.72,216.81z
		 M139.84,233.23c-0.07-0.87-0.31-1.61-0.67-2.25c-1.02-1.83-3.07-2.72-5.41-2.52c-1.15,0.1-2.28,0.75-2.98,1.67l-0.2-0.09
		c-0.02-0.85-0.04-1.76,0.1-2.63c0.23-1.35,0.23-2.09,0.98-3.26c0.66-1.03,1.68-1.88,2.94-1.99c0.54-0.05,1.12-0.04,1.66,0.1
		l0.14-0.29c-0.19-0.34-0.47-0.65-0.58-1.02c-0.45-0.07-0.92-0.06-1.38-0.02c-1.64,0.14-3.38,0.71-4.67,1.88
		c-2.18,1.99-3.01,5.21-3.05,8.18c-0.01,0.61,0.01,1.23,0.07,1.82c0.16,1.81,0.72,3.63,1.87,5.05c0.65,0.77,1.3,1.24,2.24,1.63
		c0.72,0.3,2.19,0.44,2.99,0.38C137.44,239.53,140.16,236.89,139.84,233.23z M133.73,238.61c-2.16,0.19-2.59-2.81-2.73-4.37
		c-0.08-0.97-0.04-2.37,0.54-3.26c0.31-0.48,0.76-0.8,1.42-0.86c0.83-0.08,1.43,0.29,1.86,0.86c0.68,0.9,0.93,2.32,1.01,3.27
		C135.96,235.72,135.65,238.44,133.73,238.61z"/>
	<path fill="#DDB229" d="M125,215.43c-49.87,0-90.44-40.57-90.44-90.44c0-49.86,40.58-90.43,90.44-90.43s90.44,40.57,90.44,90.43
		C215.44,174.87,174.87,215.43,125,215.43 M125,36.1c-49.02,0-88.89,39.88-88.89,88.9s39.88,88.9,88.89,88.9s88.89-39.88,88.89-88.9
		S174.02,36.1,125,36.1"/>
	<path fill="#DDB229" d="M125,211.6c-47.75,0-86.6-38.85-86.6-86.6c0-47.76,38.85-86.6,86.6-86.6s86.6,38.85,86.6,86.6
		S172.75,211.6,125,211.6 M125,39.94c-46.9,0-85.06,38.16-85.06,85.06S78.1,210.06,125,210.06s85.06-38.16,85.06-85.06
		S171.9,39.94,125,39.94"/>
</g>
</svg>
